<?xml version="1.0" encoding="utf-8"?>
<!-- Generator: Adobe Illustrator 24.0.1, SVG Export Plug-In . SVG Version: 6.00 Build 0)  -->
<svg version="1.1" id="Layer_1" xmlns="http://www.w3.org/2000/svg" xmlns:xlink="http://www.w3.org/1999/xlink" x="0px" y="0px"
	 viewBox="0 0 20 20" style="enable-background:new 0 0 20 20;" xml:space="preserve">
<style type="text/css">
	.st0{fill-rule:evenodd;clip-rule:evenodd;fill:#FFFFFF;}
	.st1{fill:none;stroke:#FFFFFF;stroke-width:0.5669;stroke-miterlimit:10;}
</style>
<g>
	<g>
		<path class="st0" d="M9.23,9.96v3.95c0,0.06,0.05,0.1,0.1,0.1h1.47c0.06,0,0.1-0.05,0.1-0.1V9.9h1.06c0.05,0,0.1-0.04,0.1-0.09
			l0.1-1.21c0.01-0.06-0.04-0.11-0.1-0.11h-1.17V7.62c0-0.2,0.16-0.36,0.36-0.36h0.82c0.06,0,0.1-0.05,0.1-0.1V5.94
			c0-0.06-0.05-0.1-0.1-0.1H10.7c-0.81,0-1.47,0.66-1.47,1.47v1.17H8.5c-0.06,0-0.1,0.05-0.1,0.1V9.8c0,0.06,0.05,0.1,0.1,0.1h0.73
			V9.96z"/>
	</g>
	<circle class="st1" cx="10.29" cy="9.93" r="8.88"/>
</g>
</svg>
