<?xml version="1.0" encoding="utf-8"?>
<!-- Generator: Adobe Illustrator 24.0.1, SVG Export Plug-In . SVG Version: 6.00 Build 0)  -->
<svg version="1.1" id="Layer_1" xmlns="http://www.w3.org/2000/svg" xmlns:xlink="http://www.w3.org/1999/xlink" x="0px" y="0px"
	 viewBox="0 0 20 20" style="enable-background:new 0 0 20 20;" xml:space="preserve">
<style type="text/css">
	.st0{fill:#FFFFFF;}
	.st1{fill:none;stroke:#FFFFFF;stroke-width:0.5669;stroke-miterlimit:10;}
</style>
<g>
	<g>
		<path class="st0" d="M12.12,5.33H8.47C6.94,5.33,5.7,6.57,5.7,8.1v3.66c0,1.53,1.24,2.77,2.77,2.77h3.66
			c1.53,0,2.77-1.24,2.77-2.77V8.1C14.89,6.57,13.65,5.33,12.12,5.33z M14.02,11.76c0,1.05-0.85,1.9-1.9,1.9H8.47
			c-1.05,0-1.9-0.85-1.9-1.9V8.1c0-1.05,0.85-1.9,1.9-1.9h3.66c1.05,0,1.9,0.85,1.9,1.9V11.76z"/>
		<circle class="st0" cx="12.71" cy="7.57" r="0.54"/>
		<path class="st0" d="M10.31,7.72c-1.25,0-2.27,1.02-2.27,2.27c0,1.25,1.02,2.27,2.27,2.27c1.25,0,2.27-1.02,2.27-2.27
			C12.58,8.74,11.56,7.72,10.31,7.72z M10.31,11.44c-0.8,0-1.45-0.65-1.45-1.45c0-0.8,0.65-1.45,1.45-1.45
			c0.8,0,1.45,0.65,1.45,1.45C11.76,10.79,11.11,11.44,10.31,11.44z"/>
	</g>
	<circle class="st1" cx="10.29" cy="9.93" r="8.88"/>
</g>
</svg>
