<?xml version="1.0" encoding="utf-8"?>
<!-- Generator: Adobe Illustrator 24.0.1, SVG Export Plug-In . SVG Version: 6.00 Build 0)  -->
<svg version="1.1" id="Layer_1" xmlns="http://www.w3.org/2000/svg" xmlns:xlink="http://www.w3.org/1999/xlink" x="0px" y="0px"
	 viewBox="0 0 20 20" style="enable-background:new 0 0 20 20;" xml:space="preserve">
<style type="text/css">
	.st0{fill:none;stroke:#FFFFFF;stroke-width:0.5669;stroke-miterlimit:10;}
	.st1{fill:#FFFFFF;}
</style>
<g>
	<circle class="st0" cx="10.29" cy="9.93" r="8.88"/>
	<g>
		<path class="st1" d="M10.26,4.96c0.66,0,1.31,0,1.96,0c0.84,0.83,1.66,1.66,2.49,2.49c-0.04,0.06-1.34,1.35-1.38,1.38
			c-0.01-0.01-0.03-0.02-0.04-0.03c-0.33-0.33-0.66-0.66-0.99-0.99c-0.02-0.02-0.03-0.03-0.06-0.05c0,0.03,0,0.05,0,0.07
			c0,1.24,0,2.47,0,3.71c0,0.04-0.01,0.07-0.01,0.11c0,0.01,0,0.02,0,0.03c0,0.05,0.01,0.1,0.01,0.15
			c-0.01,0.01-0.02,0.01-0.03,0.01c0.01,0.02,0.01,0.03,0.01,0.04c0,0.08,0,0.15-0.01,0.22c-0.01,0.09-0.03,0.17-0.04,0.26
			c-0.01,0.07-0.04,0.14-0.05,0.21c-0.02,0.09-0.05,0.16-0.08,0.25c-0.04,0.11-0.08,0.21-0.13,0.31c-0.04,0.07-0.07,0.15-0.12,0.22
			c-0.06,0.09-0.11,0.18-0.18,0.27c-0.1,0.13-0.2,0.26-0.32,0.37c-0.13,0.13-0.27,0.25-0.42,0.35c-0.16,0.11-0.34,0.21-0.52,0.3
			c-0.11,0.05-0.23,0.1-0.35,0.13c-0.07,0.02-0.14,0.05-0.22,0.06c-0.08,0.02-0.17,0.03-0.25,0.04C9.32,14.91,9.1,14.9,8.88,14.9
			c-0.08,0-0.15,0-0.23-0.01c-0.08-0.01-0.17-0.03-0.25-0.05c-0.02,0-0.05,0-0.08-0.01c-0.1-0.03-0.2-0.07-0.31-0.09
			C7.9,14.69,7.8,14.65,7.7,14.6c-0.16-0.07-0.31-0.17-0.46-0.27c-0.19-0.13-0.36-0.28-0.51-0.44c-0.08-0.08-0.15-0.18-0.22-0.27
			c-0.07-0.1-0.14-0.2-0.2-0.3c-0.06-0.1-0.1-0.2-0.15-0.3c-0.04-0.08-0.07-0.16-0.1-0.24c-0.03-0.1-0.07-0.21-0.09-0.31
			c-0.01-0.08-0.04-0.15-0.05-0.23C5.9,12.18,5.9,12.12,5.9,12.06c0-0.03-0.01-0.07-0.01-0.1c0-0.02-0.01-0.04-0.01-0.06
			c0-0.09,0-0.18,0-0.27c0-0.05,0-0.11,0.02-0.16c0.01-0.02,0-0.04,0-0.06c0-0.08,0.01-0.15,0.03-0.23c0.01-0.02,0-0.05,0.01-0.08
			c0.03-0.1,0.05-0.21,0.08-0.31c0.05-0.17,0.11-0.33,0.2-0.48c0.03-0.05,0.05-0.1,0.08-0.16c0.01-0.02,0.02-0.05,0.05-0.06
			c0.02-0.04,0.02-0.09,0.07-0.12c0.01-0.07,0.06-0.11,0.1-0.16C6.64,9.65,6.78,9.5,6.94,9.36c0.14-0.12,0.29-0.24,0.45-0.33
			C7.5,8.96,7.62,8.89,7.75,8.84C7.85,8.78,7.96,8.74,8.08,8.7C8.18,8.67,8.29,8.64,8.4,8.62C8.49,8.6,8.58,8.57,8.68,8.58
			C8.79,8.54,8.9,8.57,9.02,8.55c0.03-0.01,0.06,0,0.09,0c0.06,0,0.12,0.01,0.18,0.01c0.04,0,0.09,0.01,0.13,0.02
			c0.05,0.01,0.11,0.01,0.16,0.02c0.08,0.02,0.17,0.02,0.25,0.05c0.05,0.02,0.11,0.03,0.16,0.04c0.01,0,0.02,0.01,0.03,0.01
			c0.01,0.05,0.01,2.21,0,2.27c-0.02-0.01-0.03-0.02-0.05-0.04c-0.06-0.07-0.13-0.13-0.21-0.19c-0.11-0.08-0.24-0.14-0.37-0.18
			c-0.13-0.04-0.27-0.05-0.4-0.04c-0.14,0.01-0.28,0.04-0.41,0.1c-0.16,0.07-0.29,0.16-0.41,0.29c-0.09,0.1-0.16,0.2-0.21,0.33
			c-0.02,0.07-0.05,0.13-0.07,0.2c-0.04,0.15-0.04,0.3-0.02,0.45C7.87,12,7.9,12.1,7.95,12.2c0.03,0.07,0.07,0.15,0.12,0.21
			c0.05,0.07,0.11,0.13,0.17,0.19c0.09,0.09,0.2,0.16,0.32,0.22c0.05,0.02,0.11,0.04,0.16,0.06c0.09,0.03,0.19,0.03,0.28,0.05
			c0.04,0.01,0.08,0.01,0.12,0c0.06-0.01,0.12-0.02,0.17-0.03c0.08-0.01,0.16-0.04,0.24-0.07c0.08-0.04,0.15-0.08,0.22-0.12
			c0.07-0.05,0.13-0.11,0.19-0.17c0.1-0.1,0.17-0.22,0.23-0.36c0.03-0.08,0.05-0.17,0.07-0.26c0.02-0.08,0.02-0.16,0.02-0.23
			c0-0.53,0-1.05,0-1.58c0-1.08,0-2.16,0-3.24c0-0.61,0-1.22,0-1.83C10.26,5.02,10.26,5,10.26,4.96z"/>
	</g>
</g>
</svg>
