<?xml version="1.0" encoding="utf-8"?>
<!-- Generator: Adobe Illustrator 24.0.1, SVG Export Plug-In . SVG Version: 6.00 Build 0)  -->
<svg version="1.1" id="Layer_1" xmlns="http://www.w3.org/2000/svg" xmlns:xlink="http://www.w3.org/1999/xlink" x="0px" y="0px"
	 viewBox="0 0 20 20" style="enable-background:new 0 0 20 20;" xml:space="preserve">
<style type="text/css">
	.st0{fill:none;stroke:#FFFFFF;stroke-width:0.5669;stroke-miterlimit:10;}
	.st1{fill:#FFFFFF;}
</style>
<g>
	<circle class="st0" cx="10.29" cy="9.93" r="8.88"/>
	<g>
		<g>
			<g>
				<path class="st1" d="M15.15,8.7c0-1.17-0.95-2.12-2.12-2.12H7.55c-1.17,0-2.12,0.95-2.12,2.12v2.57c0,1.17,0.95,2.12,2.12,2.12
					h5.49c1.17,0,2.12-0.95,2.12-2.12V8.7z M11.69,10.12l-2.19,1.2c-0.1,0.05-0.18-0.02-0.18-0.13V8.73c0-0.11,0.09-0.18,0.18-0.12
					l2.2,1.26C11.81,9.93,11.79,10.07,11.69,10.12z"/>
			</g>
		</g>
	</g>
</g>
</svg>
